# AST/ASF file generated using VICON BodyLanguage
# -----------------------------------------------
:version 1.10
:name VICON
:units
  mass 1.0
  length 0.45
  angle deg
:documentation
   .ast/.asf automatically generated from VICON data using
   VICON BodyBuilder and BodyLanguage model FoxedUp or BRILLIANT.MOD
:root
   order TX TY TZ RX RY RZ
   axis XYZ
   position 0 0 0  
   orientation 0 0 0 
:bonedata
  begin
     id 1 
     name lhipjoint
     direction 0.62366 -0.717238 0.310833 
     length 2.53602 
     axis 0 0 0  XYZ
  end
  begin
     id 2 
     name lfemur
     direction 0.34202 -0.939693 0  
     length 7.40817  
     axis 0 0 20  XYZ
    dof rx ry rz
    limits (-160.0 20.0)
           (-70.0 70.0)
           (-60.0 70.0)
  end
  begin
     id 3 
     name ltibia
     direction 0.34202 -0.939693 0   
     length 7.7045   
     axis 0 0 20   XYZ
    dof rx
    limits (-10.0 170.0)
  end
  begin
     id 4 
     name lfoot
     direction 0.0673888 -0.185149 0.980397   
     length 2.09456   
     axis -90 7.62852e-016 20   XYZ
    dof rx rz
    limits (-45.0 90.0)
           (-70.0 20.0)
  end
  begin
     id 5 
     name ltoes
     direction 1.53575e-011 -4.21994e-011 1   
     length 1.05543   
     axis -90 7.62852e-016 20   XYZ
    dof rx
    limits (-90.0 20.0)
  end
  begin
     id 6 
     name rhipjoint
     direction -0.489018 -0.800347 0.346851   
     length 2.27268  
     axis 0 0 0  XYZ 
  end
  begin
     id 7 
     name rfemur
     direction -0.34202 -0.939693 0   
     length 7.55487   
     axis 0 0 -20   XYZ
    dof rx ry rz
    limits (-160.0 20.0)
           (-70.0 70.0)
           (-70.0 60.0)
  end
  begin
     id 8 
     name rtibia
     direction -0.34202 -0.939693 0   
     length 7.78969   
     axis 0 0 -20   XYZ
    dof rx
    limits (-10.0 170.0)
 end
 begin
     id 9 
     name rfoot
     direction -0.0859318 -0.236096 0.967923   
     length 2.19143  
     axis -90 -7.62852e-016 -20   XYZ
    dof rx rz
    limits (-45.0 90.0)
           (-20.0 70.0)
  end
  begin
     id 10 
     name rtoes
     direction -1.53538e-011 -4.21989e-011 1   
     length 1.09845   
     axis -90 -7.62852e-016 -20   XYZ
    dof rx
    limits (-90.0 20.0)
  end
  begin
     id 11 
     name lowerback
     direction -0.00762546 0.998978 -0.0445553   
     length 1.98161   
     axis 0 0 0   XYZ
    dof rx ry rz
    limits (-20.0 45.0)
           (-30.0 30.0)
           (-30.0 30.0)
  end
  begin
     id 12 
     name upperback
     direction 0.0422361 0.998867 -0.0219156   
     length 1.97558   
     axis 0 0 0   XYZ
    dof rx ry rz
    limits (-20.0 45.0)
           (-30.0 30.0)
           (-30.0 30.0)
  end
  begin
     id 13 
     name thorax
     direction 0.0442465 0.999021 7.47603e-005   
     length 1.97799   
     axis 0 0 0   XYZ
    dof rx ry rz
    limits (-20.0 45.0)
           (-30.0 30.0)
           (-30.0 30.0)
  end
  begin
     id 14 
     name lowerneck
     direction 0.00312169 0.984641 0.174564   
     length 1.78995   
     axis 0 0 0   XYZ
    dof rx ry rz
    limits (-20.0 45.0)
           (-30.0 30.0)
           (-30.0 30.0)
  end
  begin
     id 15 
     name upperneck
     direction -0.0383028 0.985255 -0.166749   
     length 1.83053   
     axis 0 0 0   XYZ
    dof rx ry rz
    limits (-20.0 45.0)
           (-30.0 30.0)
           (-30.0 30.0)
  end
  begin
     id 16
     name head
     direction -0.0129546 0.997059 -0.0755386  
     length 1.84088  
     axis 0 0 0   XYZ
    dof rx ry rz
    limits (-20.0 45.0)
           (-30.0 30.0)
           (-30.0 30.0)
  end
  begin
     id 17 
     name lclavicle
     direction 0.912857 0.370519 -0.171488  
     length 3.51279  
     axis 0 0 0   XYZ
    dof ry rz
    limits (-20.0 10.0)
           (0.0 20.0)
  end
  begin
     id 18 
     name lhumerus
     direction 1 -4.48962e-011 3.64361e-027   
     length 4.95663   
     axis 180 -30 -90   XYZ
    dof rx ry rz
    limits (-60.0 90.0)
           (-90.0 90.0)
           (-90.0 90.0)
  end
  begin
     id 19
     name lradius
     direction 1 -4.48974e-011 5.97202e-027   
     length 3.38177   
     axis 180 -30 -90   XYZ
    dof rx
    limits (-10.0 170.0)
  end
  begin
     id 20
     name lwrist
     direction 1 -4.4896e-011 9.83288e-027   
     length 1.69088   
     axis -9.31221e-015 90 90   XYZ
    dof ry
    limits (-180.0 0.0)
 end
  begin
     id 21 
     name lhand
     direction 1 -4.4902e-011 1.96551e-026   
     length 0.662909   
     axis -1.25475e-014 90 90   XYZ
    dof rx rz
    limits (-90.0 90.0)
           (-45.0 45.0)
  end
  begin
     id 22 
     name lfingers
     direction 1 -4.48971e-011 3.93277e-026   
     length 0.534454   
     axis -2.50945e-014 90 90   XYZ
    dof rx
    limits (0.0 90.0)
  end
  begin
     id 23
     name lthumb
     direction 0.707107 -6.34933e-011 0.707107   
     length 0.767373   
     axis -90 45 -4.80359e-014   XYZ
    dof rx rz
    limits (-45.0 45.0)
           (-45.0 45.0)
  end
  begin
     id 24 
     name rclavicle
     direction -0.900919 0.395364 -0.178976   
     length 3.40627  
     axis 0 0 0   XYZ 
    dof ry rz
    limits (-10.0 20.0)
           (-20.0 0.0)
  end
  begin
     id 25 
     name rhumerus
     direction -1 -4.48969e-011 1.03875e-027  
     length 5.08365   
     axis 180 30 90   XYZ
    dof rx ry rz
    limits (-90.0 60.0)
           (-90.0 90.0)
           (-90.0 90.0)
  end
  begin
     id 26 
     name rradius
     direction -1 -4.48951e-011 5.02733e-027   
     length 3.35984   
     axis 180 30 90   XYZ
    dof rx
    limits (-10.0 170.0)
  end
  begin
     id 27 
     name rwrist
     direction -1 -4.49011e-011 9.82828e-027   
     length 1.67992   
     axis -9.31221e-015 -90 -90   XYZ
    dof ry
    limits (-180.0 0.0)
  end
  begin
     id 28
     name rhand
     direction -1 -4.48894e-011 1.96774e-026   
     length 0.820764   
     axis -1.25475e-014 -90 -90   XYZ
    dof rx rz
    limits (-90.0 90.0)
           (-45.0 45.0)
  end
  begin
     id 29
     name rfingers
     direction -1 -4.49095e-011 3.92833e-026   
     length 0.661721   
     axis -2.50945e-014 -90 -90   XYZ
    dof rx
    limits (0.0 90.0)
  end
  begin
     id 30
     name rthumb
     direction -0.707107 -6.34881e-011 0.707107   
     length 0.950103   
     axis -90 -45 4.80359e-014   XYZ
    dof rx rz
    limits (-45.0 45.0)
           (-45.0 45.0)
  end
:hierarchy
  begin
    root lhipjoint rhipjoint lowerback
    lhipjoint lfemur
    lfemur ltibia
    ltibia lfoot
    lfoot ltoes
    rhipjoint rfemur
    rfemur rtibia
    rtibia rfoot
    rfoot rtoes
    lowerback upperback
    upperback thorax
    thorax lowerneck lclavicle rclavicle
    lowerneck upperneck
    upperneck head
    lclavicle lhumerus
    lhumerus lradius
    lradius lwrist
    lwrist lhand lthumb
    lhand lfingers
    rclavicle rhumerus
    rhumerus rradius
    rradius rwrist
    rwrist rhand rthumb
    rhand rfingers
  end

#!OML:ASF I:\golf\golf\golf 2\Subject 1\2002-09-07\Subject1.ASF
:FULLY-SPECIFIED
:DEGREES
16
root -8.14777 17.8224 0.155941 -115.631 85.814 -129.722
lowerback 3.55254 1.41364 -1.4585
upperback 4.58687 1.94696 4.33031
thorax 2.54319 0.926476 5.28144
lowerneck -15.79 -2.05664 1.9681
upperneck 38.895 -0.124701 -4.57269
head 16.677 0.142914 -2.24977
rclavicle 1.03368e-014 2.38542e-015
rhumerus -0.310235 -3.78874 -100.316
rradius 18.3907
rwrist -29.603
rhand -12.8953 -8.84794
rfingers 7.12502
rthumb 13.1941 -38.4104
lclavicle 1.03368e-014 2.38542e-015
lhumerus -5.80281 -36.8795 110.478
lradius 24.9871
lwrist 40.4086
lhand 169.016 63.1158
lfingers 7.12502
lthumb -164.964 33.6817
rfemur -26.1128 -0.0367214 11.4735
rtibia 26.537
rfoot -8.91261 -11.3122
rtoes -5.06848
lfemur -28.6506 5.84015 -8.43187
ltibia 27.9477
lfoot -9.6901 -2.6502
ltoes -20.6816
17
root -8.14634 17.8213 0.15529 -116.048 85.8067 -130.145
lowerback 3.54442 1.38866 -1.43247
upperback 4.57993 1.91375 4.3135
thorax 2.54509 0.910663 5.24964
lowerneck -15.7821 -2.03291 1.97367
upperneck 38.9327 -0.0809962 -4.57826
head 16.6977 0.162667 -2.24625
rclavicle -2.66371e-014 -1.27222e-014
rhumerus -0.287899 -4.12759 -100.362
rradius 18.3021
rwrist -29.4894
rhand -12.5644 -8.71176
rfingers 7.12502
rthumb 13.5131 -38.2533
lclavicle -2.66371e-014 -1.27222e-014
lhumerus -5.81032 -36.794 110.476
lradius 24.9526
lwrist 40.3118
lhand 168.975 63.022
lfingers 7.12502
lthumb -165.004 33.585
rfemur -26.1155 -0.074578 11.463
rtibia 26.5647
rfoot -8.9391 -11.2932
rtoes -5.17118
lfemur -28.6775 5.87214 -8.47866
ltibia 27.9189
lfoot -9.69687 -2.60791
ltoes -21.0936
18
root -8.14504 17.821 0.15506 -116.915 85.8585 -130.965
lowerback 3.61861 1.37346 -1.49157
upperback 4.58271 1.89286 4.28209
thorax 2.50779 0.899387 5.24848
lowerneck -15.7763 -2.0267 1.99111
upperneck 38.9443 -0.0662091 -4.60035
head 16.7031 0.168835 -2.25682
rclavicle 1.78906e-014 2.38542e-015
rhumerus -0.242526 -4.50543 -100.407
rradius 18.1815
rwrist -29.3422
rhand -12.1991 -8.53448
rfingers 7.12502
rthumb 13.8651 -38.0523
lclavicle 1.78906e-014 2.38542e-015
lhumerus -5.82869 -36.6834 110.475
lradius 24.9227
lwrist 40.171
lhand 169.017 62.9452
lfingers 7.12502
lthumb -164.963 33.5112
rfemur -26.068 -0.168685 11.3929
rtibia 26.5883
rfoot -9.00152 -11.2196
rtoes -4.79836
lfemur -28.6211 5.83224 -8.55855
ltibia 27.9063
lfoot -9.72526 -2.57306
ltoes -21.2754
19
root -8.14453 17.8206 0.155932 -117.634 85.8873 -131.661
lowerback 3.68898 1.35682 -1.5872
upperback 4.57588 1.86965 4.29693
thorax 2.46075 0.885822 5.31678
lowerneck -15.7899 -2.03183 2.01409
upperneck 38.9647 -0.0374758 -4.70174
head 16.7188 0.170883 -2.30192
rclavicle -1.98785e-015 -3.18055e-015
rhumerus -0.277503 -4.34712 -100.373
rradius 18.166
rwrist -29.4075
rhand -12.2335 -8.42775
rfingers 7.12502
rthumb 13.832 -37.9478
lclavicle -1.98785e-015 -3.18055e-015
lhumerus -5.83767 -36.6375 110.498
lradius 24.9135
lwrist 40.0957
lhand 169.046 62.9098
lfingers 7.12502
lthumb -164.935 33.4779
rfemur -26.05 -0.242042 11.3403
rtibia 26.6121
rfoot -9.12237 -11.1153
rtoes -4.13432
lfemur -28.596 5.81928 -8.61827
ltibia 27.9018
lfoot -9.71303 -2.60813
ltoes -21.2693
20
root -8.14431 17.8196 0.157621 -117.519 85.8369 -131.579
lowerback 3.64911 1.35523 -1.5597
upperback 4.57953 1.86816 4.32739
thorax 2.48696 0.885208 5.33451
lowerneck -15.7848 -2.03614 2.04861
upperneck 38.9483 -0.00687959 -4.82234
head 16.71 0.171944 -2.35588
rclavicle -1.59028e-015 -1.82882e-014
rhumerus -0.285763 -4.21479 -100.329
rradius 18.1933
rwrist -29.4833
rhand -12.2898 -8.36144
rfingers 7.12502
rthumb 13.7778 -37.8852
lclavicle -1.59028e-015 -1.82882e-014
lhumerus -5.81898 -36.7161 110.519
lradius 24.8962
lwrist 40.0703
lhand 169.03 62.8861
lfingers 7.12502
lthumb -164.951 33.453
rfemur -26.0878 -0.249908 11.3773
rtibia 26.6418
rfoot -9.22273 -11.0216
rtoes -3.77655
lfemur -28.6105 5.81158 -8.54966
ltibia 27.8904
lfoot -9.70409 -2.67065
ltoes -21.1658
21
root -8.14266 17.8187 0.15946 -117.238 85.8109 -131.313
lowerback 3.62406 1.36416 -1.5346
upperback 4.5873 1.88065 4.34531
thorax 2.50797 0.891708 5.33979
lowerneck -15.7275 -2.02452 2.06062
upperneck 38.863 0.0301428 -4.89873
head 16.6519 0.176546 -2.38176
rclavicle -4.77083e-015 -5.48646e-014
rhumerus -0.326233 -3.9897 -100.296
rradius 18.2938
rwrist -29.5424
rhand -12.4954 -8.4884
rfingers 7.12502
rthumb 13.5796 -38.0255
lclavicle -4.77083e-015 -5.48646e-014
lhumerus -5.81639 -36.7688 110.544
lradius 24.893
lwrist 40.0787
lhand 169.018 63.0179
lfingers 7.12502
lthumb -164.962 33.5841
rfemur -26.1125 -0.243029 11.4151
rtibia 26.6805
rfoot -9.22293 -11.0005
rtoes -4.01804
lfemur -28.5918 5.77746 -8.47587
ltibia 27.877
lfoot -9.69215 -2.69505
ltoes -20.6744
22
root -8.14096 17.819 0.160694 -117.557 85.8446 -131.604
lowerback 3.68766 1.36611 -1.60659
upperback 4.57894 1.88258 4.35696
thorax 2.46123 0.891484 5.3909
lowerneck -15.6655 -2.02013 2.04267
upperneck 38.7983 0.0580531 -4.94755
head 16.6036 0.177677 -2.39205
rclavicle 1.98785e-015 9.54166e-015
rhumerus -0.378486 -3.89449 -100.286
rradius 18.3148
rwrist -29.4906
rhand -12.7399 -8.56759
rfingers 7.12502
rthumb 13.3439 -38.1203
lclavicle 1.98785e-015 9.54166e-015
lhumerus -5.86092 -36.7535 110.579
lradius 24.9182
lwrist 40.0849
lhand 169.05 63.0756
lfingers 7.12502
lthumb -164.931 33.6441
rfemur -26.1085 -0.241917 11.3922
rtibia 26.734
rfoot -9.16255 -11.1066
rtoes -4.6541
lfemur -28.5452 5.72508 -8.49524
ltibia 27.864
lfoot -9.66379 -2.72636
ltoes -20.1361
